<svg width="46" height="32" viewBox="0 0 46 32" fill="none" xmlns="http://www.w3.org/2000/svg">
<path d="M30.2873 27.0106H14.8103C14.6031 28.2764 13.936 29.4291 12.929 30.2614C11.922 31.0937 10.6411 31.5509 9.31682 31.5509C7.99252 31.5509 6.71166 31.0937 5.70464 30.2614C4.69762 29.4291 4.03052 28.2764 3.82332 27.0106H1.88631C1.39149 27.0075 0.918139 26.8146 0.570025 26.4743C0.221911 26.1339 0.0274507 25.674 0.0293142 25.1951V2.46289C0.0271852 1.98386 0.221516 1.52358 0.569658 1.18304C0.917801 0.842502 1.39131 0.649556 1.88631 0.646484H27.4373C27.9322 0.649556 28.4056 0.842474 28.7536 1.18304C29.1016 1.52361 29.2957 1.98395 29.2933 2.46289V4.30647H36.4143C36.4947 4.30614 36.5747 4.31623 36.6523 4.33647C38.9523 4.53002 40.1093 5.69123 41.3293 7.68671L44.8883 13.5841C44.9732 13.7241 45.018 13.8835 45.0183 14.0458V26.1019C45.0194 26.3415 44.9221 26.5715 44.7479 26.7417C44.5737 26.9119 44.3369 27.0084 44.0893 27.0097H41.2753C41.0681 28.2755 40.401 29.4281 39.394 30.2604C38.387 31.0927 37.1061 31.55 35.7818 31.55C34.4575 31.55 33.1767 31.0927 32.1696 30.2604C31.1626 29.4281 30.4955 28.2755 30.2883 27.0097L30.2873 27.0106ZM32.0653 26.1019C32.0732 26.8112 32.2977 27.5024 32.7107 28.0884C33.1236 28.6745 33.7065 29.1292 34.3859 29.3955C35.0653 29.6617 35.811 29.7275 36.5289 29.5845C37.2469 29.4415 37.9051 29.0961 38.4207 28.5919C38.9363 28.0877 39.2862 27.4472 39.4265 26.7509C39.5667 26.0547 39.491 25.3338 39.2088 24.6791C38.9267 24.0244 38.4507 23.4653 37.8408 23.0718C37.2309 22.6784 36.5143 22.4682 35.7813 22.4679C34.791 22.4741 33.8436 22.8603 33.1469 23.5415C32.4503 24.2228 32.0613 25.1435 32.0653 26.1019ZM5.60134 26.1019C5.60923 26.8112 5.83376 27.5024 6.24669 28.0884C6.65962 28.6745 7.2425 29.1292 7.92192 29.3955C8.60135 29.6617 9.34697 29.7275 10.0649 29.5845C10.7829 29.4415 11.4411 29.0961 11.9567 28.5919C12.4723 28.0877 12.8222 27.4472 12.9625 26.7509C13.1027 26.0547 13.027 25.3338 12.7448 24.6791C12.4627 24.0244 11.9867 23.4653 11.3768 23.0718C10.7669 22.6784 10.0503 22.4682 9.31731 22.4679C8.32679 22.4738 7.37915 22.8598 6.6823 23.541C5.98545 24.2223 5.59634 25.1433 5.60033 26.1019H5.60134ZM41.2733 25.1942H43.1593V19.7573H40.4233C40.3007 19.7568 40.1794 19.733 40.0664 19.6871C39.9533 19.6412 39.8507 19.5741 39.7644 19.4898C39.6781 19.4055 39.6099 19.3055 39.5635 19.1957C39.5172 19.0858 39.4937 18.9682 39.4943 18.8495V17.0622C39.494 16.3648 39.7696 15.6937 40.2643 15.1867H33.8853C33.8081 15.1866 33.7312 15.1772 33.6563 15.1586C32.9516 15.0978 32.2961 14.7834 31.8194 14.2773C31.3428 13.7713 31.0798 13.1104 31.0823 12.4257V7.87738C31.0817 7.75868 31.1052 7.64092 31.1515 7.53101C31.1978 7.42111 31.2661 7.32125 31.3523 7.23686C31.4386 7.15248 31.5412 7.08536 31.6543 7.03935C31.7674 6.99334 31.8887 6.96934 32.0113 6.9687H38.4943C38.15 6.66031 37.7426 6.4251 37.2986 6.27857C36.8545 6.13205 36.3836 6.07732 35.9163 6.11791H29.2933V25.1902H30.2873C30.4945 23.9244 31.1616 22.7717 32.1687 21.9394C33.1757 21.1071 34.4565 20.6499 35.7808 20.6499C37.1051 20.6499 38.386 21.1071 39.393 21.9394C40.4 22.7717 41.0671 23.9244 41.2743 25.1902L41.2733 25.1942ZM14.8093 25.1942H27.4363V2.46195H1.88631V25.1942H3.82332C4.03052 23.9284 4.69762 22.7755 5.70464 21.9432C6.71166 21.1109 7.99252 20.6537 9.31682 20.6537C10.6411 20.6537 11.922 21.1109 12.929 21.9432C13.936 22.7755 14.6031 23.9284 14.8103 25.1942H14.8093ZM41.3513 17.065V17.9449H43.1593V16.1573H42.2803C42.0335 16.1588 41.7973 16.255 41.6234 16.4245C41.4495 16.5941 41.352 16.8233 41.3523 17.0622L41.3513 17.065ZM32.9383 12.4276C32.9372 12.672 33.0363 12.9069 33.2139 13.0806C33.3914 13.2544 33.6328 13.3529 33.8853 13.3547C33.9492 13.3545 34.0129 13.361 34.0753 13.3741H42.6003L39.8343 8.79102H32.9343L32.9383 12.4276ZM33.0313 26.1038C33.0284 25.3949 33.3162 24.7137 33.8316 24.2099C34.3469 23.7061 35.0478 23.4207 35.7803 23.4163C36.0291 23.4163 36.2677 23.5121 36.4436 23.6823C36.6195 23.8526 36.7183 24.0833 36.7183 24.324C36.7183 24.5648 36.6195 24.7957 36.4436 24.966C36.2677 25.1362 36.0291 25.2318 35.7803 25.2318C35.602 25.2302 35.4272 25.2802 35.2782 25.3749C35.1291 25.4697 35.0125 25.6051 34.9432 25.7641C34.8738 25.9231 34.8548 26.0986 34.8887 26.268C34.9225 26.4375 35.0076 26.5934 35.1331 26.716C35.2586 26.8386 35.419 26.9223 35.5938 26.9565C35.7686 26.9907 35.9499 26.974 36.1149 26.9083C36.2798 26.8426 36.4208 26.7308 36.5201 26.5874C36.6193 26.4441 36.6723 26.2755 36.6723 26.1029C36.6723 25.8646 36.7701 25.6361 36.9443 25.4676C37.1184 25.299 37.3546 25.2044 37.6008 25.2044C37.8471 25.2044 38.0832 25.299 38.2574 25.4676C38.4315 25.6361 38.5293 25.8646 38.5293 26.1029C38.5293 26.8087 38.2396 27.4856 37.7239 27.9847C37.2081 28.4838 36.5087 28.7642 35.7793 28.7642C35.05 28.7642 34.3505 28.4838 33.8348 27.9847C33.319 27.4856 33.0293 26.8087 33.0293 26.1029L33.0313 26.1038ZM6.56731 26.1038C6.56438 25.3949 6.8522 24.7137 7.36757 24.2099C7.88294 23.7061 8.58378 23.4207 9.31633 23.4163C9.5651 23.4163 9.80369 23.5121 9.9796 23.6823C10.1555 23.8526 10.2543 24.0833 10.2543 24.324C10.2543 24.5648 10.1555 24.7957 9.9796 24.966C9.80369 25.1362 9.5651 25.2318 9.31633 25.2318C9.138 25.2302 8.96319 25.2802 8.81413 25.3749C8.66508 25.4697 8.54849 25.6051 8.47914 25.7641C8.4098 25.9231 8.39082 26.0986 8.42464 26.268C8.45846 26.4375 8.54354 26.5934 8.66908 26.716C8.79463 26.8386 8.95498 26.9223 9.12978 26.9565C9.30458 26.9907 9.48595 26.974 9.65087 26.9083C9.81579 26.8426 9.95683 26.7308 10.0561 26.5874C10.1553 26.4441 10.2083 26.2755 10.2083 26.1029C10.2083 25.8646 10.3061 25.6361 10.4803 25.4676C10.6544 25.299 10.8906 25.2044 11.1368 25.2044C11.3831 25.2044 11.6193 25.299 11.7934 25.4676C11.9675 25.6361 12.0653 25.8646 12.0653 26.1029C12.0653 26.8087 11.7756 27.4856 11.2599 27.9847C10.7441 28.4838 10.0447 28.7642 9.31532 28.7642C8.58598 28.7642 7.8865 28.4838 7.37078 27.9847C6.85505 27.4856 6.56532 26.8087 6.56532 26.1029L6.56731 26.1038ZM4.70934 6.12382C4.46056 6.12382 4.22198 6.02825 4.04607 5.85802C3.87016 5.68779 3.77132 5.45684 3.77132 5.21609C3.77132 4.97534 3.87016 4.74439 4.04607 4.57416C4.22198 4.40392 4.46056 4.30836 4.70934 4.30836H24.6093C24.8581 4.30836 25.0967 4.40392 25.2726 4.57416C25.4485 4.74439 25.5473 4.97534 25.5473 5.21609C25.5473 5.45684 25.4485 5.68779 25.2726 5.85802C25.0967 6.02825 24.8581 6.12382 24.6093 6.12382H4.70934Z" fill="#75425E"/>
</svg>
