<svg width="48" height="35" viewBox="0 0 48 35" fill="none" xmlns="http://www.w3.org/2000/svg">
<path d="M42.3938 8.90679C41.1774 8.89489 40.0058 9.34986 39.1351 10.172C38.2644 10.9941 37.7655 12.1164 37.7479 13.2935C37.751 13.9129 37.892 14.5244 38.1612 15.0863C38.4304 15.6482 38.8215 16.1474 39.3079 16.55L33.4479 18.5388L25.1089 9.16809C26.0042 8.879 26.784 8.32693 27.3396 7.58866C27.8953 6.85039 28.1992 5.96259 28.2089 5.04928C28.1837 3.87325 27.6832 2.75368 26.8149 1.93059C25.9465 1.10749 24.7794 0.646484 23.5639 0.646484C22.3484 0.646484 21.1813 1.10749 20.3129 1.93059C19.4446 2.75368 18.9441 3.87325 18.9189 5.04928C18.9285 5.95354 19.2261 6.83301 19.771 7.56763C20.316 8.30226 21.0817 8.85649 21.9639 9.15463L13.6119 18.5417L7.75396 16.553C8.24003 16.1503 8.63074 15.6508 8.89959 15.0889C9.16843 14.527 9.30908 13.9158 9.31194 13.2966C9.33497 12.4481 9.10937 11.6107 8.6613 10.881C8.21324 10.1514 7.56095 9.55929 6.77983 9.17329C5.99872 8.7873 5.12072 8.623 4.24724 8.69958C3.37376 8.77616 2.54051 9.09057 1.8438 9.60613C1.14709 10.1217 0.61538 10.8175 0.310108 11.6132C0.00483695 12.4089 -0.0615238 13.2718 0.118702 14.1025C0.298928 14.9331 0.718349 15.6974 1.32854 16.3071C1.93873 16.9167 2.7148 17.3469 3.56694 17.5477V29.4422C3.5743 29.5216 3.59101 29.5998 3.61687 29.6754C3.58394 29.7981 3.56721 29.9244 3.56694 30.0511C3.56694 34.3208 21.4859 34.4466 23.5289 34.4466C25.5719 34.4466 43.4909 34.3217 43.4909 30.0511C43.4902 29.9244 43.4733 29.7981 43.4408 29.6754C43.4685 29.6003 43.4853 29.5218 43.4909 29.4422V17.5477C44.5898 17.3153 45.5595 16.6944 46.2103 15.8064C46.861 14.9185 47.1458 13.8275 47.0091 12.747C46.8724 11.6666 46.3239 10.6743 45.471 9.96454C44.6181 9.2548 43.5223 8.87861 42.3979 8.90962L42.3938 8.90679ZM21.1749 5.05141C21.1633 4.5925 21.2934 4.14064 21.5485 3.75361C21.8036 3.36658 22.172 3.06188 22.6069 2.87848C23.0417 2.69508 23.5232 2.64131 23.9898 2.72396C24.4564 2.80662 24.887 3.02193 25.2265 3.34251C25.566 3.66308 25.7991 4.07422 25.8959 4.52359C25.9928 4.97297 25.9491 5.44014 25.7703 5.86534C25.5916 6.29054 25.2859 6.65453 24.8924 6.91082C24.4988 7.16711 24.0353 7.30406 23.561 7.3042C22.9362 7.3104 22.3343 7.07694 21.8871 6.65471C21.44 6.23247 21.1838 5.65597 21.1749 5.05141ZM13.5849 20.8023C13.8019 20.8748 14.0362 20.8832 14.2581 20.8264C14.48 20.7695 14.6794 20.6498 14.8309 20.4828L23.5309 10.7088L32.2309 20.4828C32.3821 20.6499 32.5813 20.7695 32.803 20.8266C33.0248 20.8836 33.2589 20.8755 33.4759 20.8032L41.2339 18.1663V27.7827C36.3489 25.7292 25.1249 25.6535 23.5339 25.6535C21.9429 25.6535 10.7149 25.7301 5.83391 27.7827V18.1663L13.5849 20.8023ZM23.5279 32.3077C14.8279 32.3077 9.27888 31.3295 6.97087 30.5059C6.6198 30.3922 6.28407 30.2381 5.97087 30.0471C6.69287 29.5429 9.03194 28.8549 12.9369 28.371C19.9723 27.5923 27.0765 27.5923 34.1119 28.371C38.0119 28.8549 40.357 29.5429 41.077 30.0471C40.7663 30.2395 40.4321 30.3937 40.082 30.5059C37.78 31.3275 32.2359 32.3077 23.5279 32.3077ZM2.28093 13.2935C2.2698 12.8347 2.40025 12.3832 2.65557 11.9964C2.91089 11.6096 3.27952 11.3051 3.71441 11.122C4.14929 10.9389 4.63063 10.8853 5.0971 10.9682C5.56356 11.0511 5.99399 11.2668 6.3333 11.5874C6.67261 11.9081 6.90543 12.3192 7.00212 12.7685C7.09882 13.2179 7.05498 13.685 6.87615 14.1101C6.69732 14.5351 6.39159 14.8991 5.9981 15.1553C5.6046 15.4115 5.14118 15.5483 4.66692 15.5484C4.04176 15.5549 3.43941 15.3212 2.99212 14.8985C2.54482 14.4758 2.28911 13.8985 2.28093 13.2935ZM42.3938 15.5484C41.9359 15.5376 41.4914 15.3962 41.116 15.1421C40.7406 14.8879 40.451 14.5324 40.2834 14.1197C40.1158 13.7071 40.0776 13.2559 40.1738 12.8224C40.2699 12.3889 40.496 11.9924 40.8238 11.6827C41.1516 11.3729 41.5664 11.1636 42.0165 11.0809C42.4666 10.9982 42.9319 11.0457 43.3542 11.2177C43.7765 11.3896 44.137 11.6785 44.3906 12.0477C44.6442 12.4169 44.7796 12.8502 44.78 13.2935C44.7713 13.8982 44.5153 14.4751 44.068 14.8975C43.6208 15.32 43.0188 15.5537 42.3938 15.5475V15.5484Z" fill="#75425E"/>
</svg>
