<svg width="40" height="40" viewBox="0 0 40 40" fill="none" xmlns="http://www.w3.org/2000/svg">
<path d="M19.994 36.4429L16.523 39.2492L14.235 35.4558L9.995 36.919L9.17297 32.5835L4.67999 32.54L5.41199 28.1852L1.20398 26.6367L3.414 22.7988L0 19.9294L3.41199 17.058L1.20203 13.2209L5.41101 11.6726L4.67798 7.3225L9.172 7.27997L9.99402 2.94451L14.234 4.40675L16.522 0.613281L19.993 3.41964L23.464 0.613281L25.753 4.4077L29.993 2.94451L30.814 7.28092L35.308 7.32439L34.576 11.6745L38.784 13.223L36.574 17.0609L39.986 19.9303L36.574 22.8016L38.783 26.6398L34.574 28.188L35.307 32.5372L30.812 32.5807L29.991 36.9171L25.753 35.4548L23.464 39.2483L19.994 36.4429ZM21.2 35.0078L22.961 36.4313L24.122 34.5055L24.914 33.1933L26.382 33.6994L28.533 34.4427L28.95 32.2428L29.235 30.738L30.796 30.7227L33.078 30.7024L32.706 28.4937L32.452 26.9842L33.911 26.4482L36.045 25.6612L34.925 23.7162L34.159 22.3856L35.342 21.3916L37.076 19.9303L35.343 18.4787L34.16 17.4828L34.926 16.1513L36.047 14.2051L33.913 13.4203L32.454 12.8851L32.709 11.3754L33.081 9.16797L30.799 9.14576L29.239 9.1304L28.954 7.62634L28.538 5.42671L26.386 6.16906L24.918 6.67514L24.125 5.36197L22.963 3.43618L21.201 4.85967L19.996 5.83214L18.791 4.85967L17.03 3.43618L15.869 5.36103L15.077 6.67419L13.608 6.16811L11.458 5.42482L11.04 7.62539L10.755 9.12946L9.19501 9.14482L6.914 9.16608L7.28601 11.3744L7.53998 12.8823L6.08099 13.4193L3.94598 14.2042L5.06702 16.1503L5.83301 17.481L4.65002 18.4768L2.91602 19.9362L4.64899 21.3945L5.83197 22.3903L5.06598 23.721L3.94501 25.6661L6.078 26.4501L7.53802 26.9871L7.28302 28.4959L6.91199 30.7061L9.19299 30.7283L10.753 30.7439L11.038 32.2487L11.455 34.4474L13.607 33.705L15.076 33.199L15.868 34.5121L17.03 36.4382L18.791 35.0144L19.996 34.042L21.2 35.0078ZM21.318 22.8907C21.318 20.0581 22.883 18.4825 24.777 18.4825C26.783 18.4825 28.077 19.9951 28.077 22.6729C28.077 25.6332 26.492 27.1021 24.662 27.1021C22.883 27.1021 21.338 25.6991 21.318 22.8907ZM22.839 22.8054C22.816 24.5967 23.521 25.9584 24.711 25.9584C25.988 25.9584 26.561 24.618 26.561 22.7648C26.561 21.0567 26.054 19.6322 24.711 19.6322C23.5 19.6283 22.839 21.0355 22.839 22.8045V22.8054ZM15.194 27.0636L23.609 12.8194H24.842L16.427 27.0636H15.194ZM11.979 17.0552C11.979 14.2488 13.542 12.6694 15.437 12.6694C17.437 12.6694 18.763 14.183 18.763 16.8617C18.763 19.8211 17.177 21.2891 15.327 21.2891C13.544 21.2891 12 19.8858 11.979 17.0562V17.0552ZM13.521 16.9912C13.477 18.7825 14.162 20.1431 15.371 20.1451C16.648 20.1451 17.221 18.8057 17.221 16.9515C17.221 15.2425 16.714 13.8181 15.371 13.8181C14.162 13.8152 13.521 15.2185 13.521 16.9924V16.9912Z" fill="#75425E"/>
</svg>
